<svg width="239" height="60" viewBox="0 0 239 60" fill="none" xmlns="http://www.w3.org/2000/svg">
<path fill-rule="evenodd" clip-rule="evenodd" d="M6.3948 2.44604C4.16477 7.15504 3.65727 16.4691 5.36475 21.3461C5.73505 22.4039 6.12845 23.6725 6.23905 24.1655C6.50697 25.3616 9.98755 33.4607 11.3835 36.1374C12.7536 38.7639 12.7282 38.7901 10.1004 37.4541C6.3206 35.5326 3.34752 31.5826 2.05042 26.7593C1.13115 23.3408 0.00397349 23.2777 0.0772985 26.6488C0.205224 32.5289 5.17522 38.814 12.5882 42.4708C15.5288 43.9211 14.6779 42.7686 21.2467 54.2024C24.0457 59.0747 24.1808 59.2308 25.5972 59.2308C27.3561 59.2308 27.6071 58.8444 28.5953 54.6155C29.5972 50.3279 30.7228 46.6075 31.9289 43.5965L32.7948 41.4347L31.8533 40.1431C31.3355 39.4326 30.798 38.8502 30.6593 38.8488C30.1948 38.844 28.0869 43.6096 26.7646 47.6535L25.4569 51.6532L23.9027 49.3844C22.4623 47.2811 17.952 38.948 16.8384 36.3319C12.847 26.9553 14.4788 15.6138 20.3028 12.2518C22.3567 11.066 21.9794 9.6086 19.8173 10.3764C15.3945 11.9471 11.3867 18.6498 10.9586 25.1924C10.8617 26.6725 9.7457 24.0611 8.6236 19.7287C7.47227 15.2835 7.3727 6.67708 8.4353 3.47029C9.38888 0.593038 7.67895 -0.265299 6.3948 2.44604ZM59.6933 1.30982C59.574 1.59996 59.6634 2.85175 59.8918 4.09177C61.1044 10.6744 60.7708 16.6257 58.8924 21.9231C57.5846 25.6113 57.0736 26.3963 57.0652 24.7304C57.0377 19.3638 53.3148 12.8507 49.0733 10.7489C45.9222 9.18752 45.6274 10.2683 48.518 12.7851C56.5554 19.7834 54.8527 33.9088 44.1036 49.4043L42.5157 51.6933L41.9636 49.7889C40.4831 44.6822 39.9738 43.3696 38.0497 39.7006L35.9766 35.7474L37.6433 33.7295C38.56 32.6197 40.4344 31.032 41.8087 30.2013C43.183 29.3706 44.2428 28.5095 44.1637 28.2878C43.6667 26.893 39.9378 28.4095 36.4521 31.4239L34.0308 33.5178L31.8846 31.5955C29.582 29.5331 25.8581 27.5444 24.6935 27.7554C23.4517 27.9804 23.6045 28.7779 25.0178 29.4484C31.5726 32.5583 36.2416 40.8258 39.5563 55.1923C40.3933 58.8197 40.6819 59.2308 42.3925 59.2308C43.7998 59.2308 43.9577 59.0614 46.1602 55.1923C47.5179 52.8072 51.0517 46.8561 52.3433 44.7796C52.8356 43.988 54.1098 43.1056 56.201 42.1082C62.3316 39.1839 67.1378 33.2911 68.1072 27.5107C68.7914 23.4293 67.2122 22.8184 66.0997 26.7343C64.7094 31.6287 61.3194 36.0255 57.5225 37.8595C55.6437 38.767 55.6206 38.591 57.1947 35.3476C64.3238 20.6586 65.7354 10.406 61.7265 2.43362C61.0403 1.06904 60.0232 0.506894 59.6933 1.30982Z" fill="white"/>
<path d="M91.5469 33.8281L91.9844 36.8281L92.625 34.125L97.125 18.25H99.6562L104.047 34.125L104.672 36.875L105.156 33.8125L108.688 18.25H111.703L106.188 41H103.453L98.7656 24.4219L98.4062 22.6875L98.0469 24.4219L93.1875 41H90.4531L84.9531 18.25H87.9531L91.5469 33.8281ZM118.266 41H115.266V18.25H118.266V41ZM126.781 38.5469H137.562V41H123.766V18.25H126.781V38.5469ZM140.984 41V18.25H147.406C149.385 18.25 151.135 18.6875 152.656 19.5625C154.177 20.4375 155.349 21.6823 156.172 23.2969C157.005 24.9115 157.427 26.7656 157.438 28.8594V30.3125C157.438 32.4583 157.021 34.3385 156.188 35.9531C155.365 37.5677 154.182 38.8073 152.641 39.6719C151.109 40.5365 149.323 40.9792 147.281 41H140.984ZM143.984 20.7188V38.5469H147.141C149.453 38.5469 151.25 37.8281 152.531 36.3906C153.823 34.9531 154.469 32.9062 154.469 30.25V28.9219C154.469 26.3385 153.859 24.3333 152.641 22.9062C151.432 21.4688 149.714 20.7396 147.484 20.7188H143.984ZM165 38.5469H175.781V41H161.984V18.25H165V38.5469ZM182.422 41H179.422V18.25H182.422V41ZM200.469 30.9531H190.922V41H187.922V18.25H202.016V20.7188H190.922V28.5H200.469V30.9531ZM218.469 30.4844H208.609V38.5469H220.062V41H205.609V18.25H219.906V20.7188H208.609V28.0312H218.469V30.4844Z" fill="#F7F7F7"/>
</svg>
